<svg xmlns="http://www.w3.org/2000/svg" xmlns:xlink="http://www.w3.org/1999/xlink" width="48" zoomAndPan="magnify" viewBox="0 0 36 36.000001" height="48" preserveAspectRatio="xMidYMid meet" version="1.0"><defs><clipPath id="00ba87b343"><path d="M 3.746094 13 L 16 13 L 16 19 L 3.746094 19 Z M 3.746094 13 " clip-rule="nonzero"/></clipPath><clipPath id="f5fb566376"><path d="M 3.746094 13 L 16 13 L 16 20 L 3.746094 20 Z M 3.746094 13 " clip-rule="nonzero"/></clipPath><clipPath id="2a27853b4b"><path d="M 12 2.613281 L 18 2.613281 L 18 8 L 12 8 Z M 12 2.613281 " clip-rule="nonzero"/></clipPath><clipPath id="66df275574"><path d="M 12 2.613281 L 19 2.613281 L 19 9 L 12 9 Z M 12 2.613281 " clip-rule="nonzero"/></clipPath><clipPath id="9b52073799"><path d="M 14 29 L 17 29 L 17 32.535156 L 14 32.535156 Z M 14 29 " clip-rule="nonzero"/></clipPath><clipPath id="35ce6ce9ad"><path d="M 27 14 L 32.207031 14 L 32.207031 20 L 27 20 Z M 27 14 " clip-rule="nonzero"/></clipPath></defs><path fill="#153a4f" d="M 8.769531 27.601562 C 8.734375 27.601562 8.699219 27.589844 8.671875 27.566406 C 8.277344 27.207031 7.894531 26.824219 7.542969 26.425781 C 7.488281 26.363281 7.496094 26.273438 7.554688 26.21875 C 7.613281 26.167969 7.707031 26.171875 7.757812 26.230469 C 8.105469 26.625 8.476562 27 8.863281 27.347656 C 8.925781 27.402344 8.929688 27.496094 8.875 27.554688 C 8.847656 27.585938 8.808594 27.601562 8.769531 27.601562 Z M 6.667969 25.222656 C 6.621094 25.222656 6.578125 25.203125 6.550781 25.160156 C 6.246094 24.722656 5.960938 24.261719 5.707031 23.792969 C 5.671875 23.722656 5.695312 23.632812 5.765625 23.59375 C 5.835938 23.558594 5.925781 23.582031 5.960938 23.652344 C 6.210938 24.113281 6.488281 24.566406 6.785156 24.996094 C 6.832031 25.058594 6.816406 25.152344 6.75 25.199219 C 6.726562 25.214844 6.695312 25.222656 6.667969 25.222656 Z M 5.164062 22.425781 C 5.105469 22.425781 5.050781 22.390625 5.027344 22.335938 C 4.832031 21.839844 4.660156 21.324219 4.519531 20.808594 C 4.5 20.730469 4.542969 20.652344 4.621094 20.628906 C 4.699219 20.609375 4.777344 20.65625 4.800781 20.730469 C 4.933594 21.238281 5.101562 21.742188 5.296875 22.226562 C 5.324219 22.300781 5.289062 22.386719 5.214844 22.414062 C 5.199219 22.421875 5.179688 22.425781 5.164062 22.425781 Z M 5.164062 22.425781 " fill-opacity="1" fill-rule="nonzero"/><path fill="#153a4f" d="M 26.90625 27.816406 C 26.863281 27.816406 26.824219 27.800781 26.796875 27.765625 C 26.742188 27.707031 26.75 27.613281 26.8125 27.5625 C 27.207031 27.222656 27.589844 26.855469 27.941406 26.46875 C 27.996094 26.410156 28.089844 26.410156 28.148438 26.464844 C 28.207031 26.519531 28.207031 26.609375 28.15625 26.667969 C 27.792969 27.058594 27.402344 27.433594 27 27.78125 C 26.972656 27.804688 26.9375 27.816406 26.90625 27.816406 Z M 29.058594 25.488281 C 29.03125 25.488281 29 25.480469 28.972656 25.460938 C 28.910156 25.414062 28.894531 25.320312 28.941406 25.257812 C 29.253906 24.835938 29.539062 24.390625 29.800781 23.9375 C 29.839844 23.867188 29.925781 23.84375 29.996094 23.882812 C 30.066406 23.921875 30.089844 24.011719 30.050781 24.082031 C 29.785156 24.542969 29.492188 25 29.175781 25.429688 C 29.148438 25.46875 29.105469 25.488281 29.058594 25.488281 Z M 30.632812 22.726562 C 30.613281 22.726562 30.59375 22.722656 30.574219 22.714844 C 30.5 22.683594 30.464844 22.597656 30.5 22.523438 C 30.703125 22.042969 30.882812 21.542969 31.03125 21.042969 C 31.054688 20.964844 31.132812 20.921875 31.210938 20.945312 C 31.285156 20.96875 31.332031 21.046875 31.308594 21.125 C 31.15625 21.636719 30.972656 22.148438 30.765625 22.640625 C 30.742188 22.695312 30.6875 22.726562 30.632812 22.726562 Z M 30.632812 22.726562 " fill-opacity="1" fill-rule="nonzero"/><path fill="#153a4f" d="M 31.652344 15.742188 C 31.582031 15.742188 31.519531 15.683594 31.511719 15.609375 C 31.453125 15.105469 31.371094 14.59375 31.257812 14.101562 C 31.242188 14.023438 31.289062 13.945312 31.367188 13.925781 C 31.445312 13.910156 31.523438 13.957031 31.542969 14.035156 C 31.65625 14.542969 31.742188 15.0625 31.796875 15.578125 C 31.804688 15.660156 31.75 15.730469 31.671875 15.738281 C 31.664062 15.738281 31.660156 15.742188 31.652344 15.742188 Z M 30.960938 12.683594 C 30.902344 12.683594 30.847656 12.644531 30.828125 12.585938 C 30.652344 12.089844 30.449219 11.601562 30.222656 11.128906 C 30.1875 11.058594 30.21875 10.972656 30.289062 10.9375 C 30.359375 10.902344 30.445312 10.929688 30.480469 11.003906 C 30.714844 11.484375 30.921875 11.984375 31.097656 12.488281 C 31.125 12.5625 31.085938 12.648438 31.011719 12.675781 C 30.996094 12.679688 30.980469 12.683594 30.960938 12.683594 Z M 30.960938 12.683594 " fill-opacity="1" fill-rule="nonzero"/><path fill="#153a4f" d="M 25.832031 5.898438 C 25.800781 5.898438 25.773438 5.890625 25.75 5.875 C 25.320312 5.574219 24.871094 5.296875 24.414062 5.046875 C 24.34375 5.011719 24.316406 4.921875 24.355469 4.851562 C 24.390625 4.78125 24.480469 4.753906 24.550781 4.792969 C 25.019531 5.046875 25.476562 5.328125 25.914062 5.636719 C 25.980469 5.679688 25.996094 5.773438 25.949219 5.839844 C 25.921875 5.878906 25.875 5.898438 25.832031 5.898438 Z M 23.046875 4.390625 C 23.027344 4.390625 23.011719 4.390625 22.992188 4.382812 C 22.507812 4.1875 22.007812 4.019531 21.503906 3.886719 C 21.425781 3.863281 21.382812 3.785156 21.402344 3.707031 C 21.421875 3.628906 21.503906 3.582031 21.578125 3.605469 C 22.09375 3.742188 22.605469 3.914062 23.097656 4.113281 C 23.171875 4.140625 23.210938 4.226562 23.179688 4.300781 C 23.15625 4.359375 23.101562 4.390625 23.046875 4.390625 Z M 19.992188 3.566406 C 19.984375 3.566406 19.976562 3.566406 19.96875 3.566406 C 19.457031 3.488281 18.929688 3.441406 18.410156 3.425781 C 18.328125 3.421875 18.265625 3.355469 18.269531 3.273438 C 18.273438 3.195312 18.339844 3.132812 18.417969 3.132812 C 18.949219 3.152344 19.488281 3.199219 20.011719 3.277344 C 20.089844 3.289062 20.144531 3.363281 20.132812 3.441406 C 20.125 3.515625 20.0625 3.566406 19.992188 3.566406 Z M 19.992188 3.566406 " fill-opacity="1" fill-rule="nonzero"/><path fill="#aeffe0" d="M 28.074219 17.132812 C 28.074219 17.800781 28.011719 18.460938 27.882812 19.117188 C 27.75 19.773438 27.558594 20.40625 27.304688 21.023438 C 27.050781 21.640625 26.738281 22.230469 26.371094 22.785156 C 26 23.339844 25.582031 23.855469 25.113281 24.328125 C 24.644531 24.800781 24.132812 25.21875 23.578125 25.59375 C 23.027344 25.964844 22.445312 26.277344 21.832031 26.53125 C 21.214844 26.789062 20.582031 26.980469 19.933594 27.109375 C 19.28125 27.242188 18.621094 27.308594 17.957031 27.308594 C 17.292969 27.308594 16.636719 27.242188 15.984375 27.109375 C 15.332031 26.980469 14.699219 26.789062 14.085938 26.53125 C 13.472656 26.277344 12.890625 25.964844 12.339844 25.59375 C 11.785156 25.21875 11.273438 24.800781 10.804688 24.328125 C 10.335938 23.855469 9.914062 23.339844 9.546875 22.785156 C 9.179688 22.230469 8.867188 21.640625 8.613281 21.023438 C 8.359375 20.40625 8.164062 19.773438 8.035156 19.117188 C 7.90625 18.460938 7.84375 17.800781 7.84375 17.132812 C 7.84375 16.464844 7.90625 15.800781 8.035156 15.144531 C 8.164062 14.492188 8.359375 13.855469 8.613281 13.238281 C 8.867188 12.621094 9.179688 12.035156 9.546875 11.476562 C 9.914062 10.921875 10.335938 10.410156 10.804688 9.9375 C 11.273438 9.464844 11.785156 9.042969 12.339844 8.671875 C 12.890625 8.300781 13.472656 7.984375 14.085938 7.730469 C 14.699219 7.472656 15.332031 7.28125 15.984375 7.152344 C 16.636719 7.019531 17.292969 6.957031 17.957031 6.957031 C 18.621094 6.957031 19.28125 7.019531 19.933594 7.152344 C 20.582031 7.28125 21.214844 7.472656 21.832031 7.730469 C 22.445312 7.984375 23.027344 8.300781 23.578125 8.671875 C 24.132812 9.042969 24.644531 9.464844 25.113281 9.9375 C 25.582031 10.410156 26 10.921875 26.371094 11.476562 C 26.738281 12.035156 27.050781 12.621094 27.304688 13.238281 C 27.558594 13.855469 27.75 14.492188 27.882812 15.144531 C 28.011719 15.800781 28.074219 16.464844 28.074219 17.132812 Z M 28.074219 17.132812 " fill-opacity="1" fill-rule="nonzero"/><path fill="#4ee584" d="M 15.910156 12.511719 L 15.910156 11.507812 C 15.910156 11.488281 15.929688 11.480469 15.941406 11.488281 C 16.238281 11.617188 16.613281 11.574219 16.910156 11.34375 C 16.996094 11.277344 17.066406 11.203125 17.128906 11.121094 L 17.128906 11.117188 C 17.203125 11.011719 17.472656 10.371094 17.472656 10.371094 L 17.65625 9.90625 C 17.714844 9.761719 17.597656 9.605469 17.441406 9.625 L 16.949219 9.683594 C 16.949219 9.683594 16.332031 9.695312 16.140625 9.820312 C 16.140625 9.820312 15.808594 9.996094 15.675781 10.164062 C 15.574219 10.292969 15.511719 10.441406 15.484375 10.59375 C 15.484375 10.59375 15.476562 10.667969 15.433594 10.667969 C 15.390625 10.667969 15.386719 10.597656 15.386719 10.597656 C 15.359375 10.445312 15.296875 10.292969 15.191406 10.164062 C 15.0625 9.996094 14.726562 9.832031 14.726562 9.832031 C 14.558594 9.738281 13.917969 9.683594 13.917969 9.683594 L 13.429688 9.625 C 13.273438 9.605469 13.152344 9.761719 13.210938 9.90625 L 13.398438 10.371094 C 13.398438 10.371094 13.667969 11.011719 13.742188 11.117188 L 13.742188 11.121094 C 13.800781 11.203125 13.871094 11.277344 13.957031 11.34375 C 14.265625 11.582031 14.660156 11.617188 14.960938 11.46875 C 14.984375 11.460938 15.011719 11.476562 15.011719 11.5 L 15.011719 12.507812 Z M 15.910156 12.511719 " fill-opacity="1" fill-rule="nonzero"/><path fill="#153a4f" d="M 15.910156 12.65625 C 15.832031 12.65625 15.765625 12.589844 15.765625 12.511719 L 15.765625 11.507812 C 15.765625 11.449219 15.796875 11.398438 15.84375 11.367188 C 15.890625 11.335938 15.949219 11.332031 16 11.351562 C 16.261719 11.46875 16.574219 11.417969 16.824219 11.230469 C 16.894531 11.175781 16.957031 11.109375 17.007812 11.035156 C 17.011719 11.035156 17.011719 11.035156 17.011719 11.03125 C 17.050781 10.976562 17.207031 10.621094 17.339844 10.3125 L 17.523438 9.855469 C 17.535156 9.824219 17.523438 9.804688 17.515625 9.792969 C 17.507812 9.78125 17.488281 9.765625 17.457031 9.769531 L 16.96875 9.828125 C 16.960938 9.828125 16.957031 9.828125 16.953125 9.828125 C 16.714844 9.832031 16.328125 9.871094 16.222656 9.941406 C 16.21875 9.945312 16.214844 9.945312 16.207031 9.949219 C 16.125 9.992188 15.882812 10.136719 15.789062 10.253906 C 15.707031 10.359375 15.652344 10.480469 15.625 10.609375 C 15.617188 10.730469 15.539062 10.816406 15.433594 10.816406 C 15.332031 10.816406 15.253906 10.730469 15.242188 10.617188 C 15.21875 10.484375 15.164062 10.359375 15.078125 10.253906 C 14.988281 10.136719 14.75 10.003906 14.664062 9.960938 C 14.660156 9.960938 14.660156 9.960938 14.65625 9.960938 C 14.558594 9.90625 14.160156 9.851562 13.90625 9.828125 C 13.90625 9.828125 13.902344 9.828125 13.902344 9.828125 L 13.410156 9.769531 C 13.382812 9.765625 13.363281 9.78125 13.355469 9.792969 C 13.347656 9.804688 13.335938 9.824219 13.347656 9.855469 L 13.53125 10.3125 C 13.660156 10.621094 13.820312 10.976562 13.859375 11.03125 C 13.859375 11.035156 13.859375 11.035156 13.859375 11.035156 C 13.914062 11.109375 13.976562 11.175781 14.046875 11.230469 C 14.300781 11.425781 14.636719 11.46875 14.894531 11.339844 C 14.953125 11.3125 15.019531 11.316406 15.070312 11.347656 C 15.125 11.382812 15.15625 11.4375 15.15625 11.5 L 15.15625 12.507812 C 15.15625 12.585938 15.089844 12.652344 15.011719 12.652344 C 14.929688 12.652344 14.867188 12.585938 14.867188 12.507812 L 14.867188 11.664062 C 14.539062 11.757812 14.164062 11.6875 13.871094 11.460938 C 13.777344 11.386719 13.695312 11.300781 13.625 11.203125 L 13.621094 11.199219 C 13.542969 11.085938 13.308594 10.535156 13.265625 10.425781 C 13.265625 10.425781 13.265625 10.425781 13.265625 10.421875 L 13.078125 9.960938 C 13.03125 9.84375 13.050781 9.714844 13.125 9.617188 C 13.203125 9.515625 13.320312 9.464844 13.445312 9.480469 L 13.933594 9.539062 C 14.050781 9.546875 14.601562 9.601562 14.792969 9.703125 C 14.839844 9.726562 15.164062 9.886719 15.308594 10.074219 C 15.355469 10.136719 15.398438 10.207031 15.433594 10.277344 C 15.46875 10.207031 15.511719 10.136719 15.5625 10.074219 C 15.703125 9.894531 16.011719 9.722656 16.070312 9.695312 C 16.285156 9.558594 16.816406 9.539062 16.9375 9.539062 L 17.421875 9.480469 C 17.546875 9.464844 17.667969 9.515625 17.742188 9.617188 C 17.820312 9.714844 17.835938 9.84375 17.789062 9.960938 L 17.605469 10.421875 C 17.605469 10.425781 17.605469 10.425781 17.605469 10.425781 C 17.558594 10.535156 17.328125 11.085938 17.246094 11.199219 L 17.246094 11.203125 C 17.175781 11.300781 17.09375 11.386719 17 11.460938 C 16.71875 11.675781 16.371094 11.753906 16.054688 11.675781 L 16.054688 12.511719 C 16.054688 12.589844 15.992188 12.65625 15.910156 12.65625 Z M 15.910156 12.65625 " fill-opacity="1" fill-rule="nonzero"/><path fill="#ffffff" d="M 14.738281 14.976562 L 14.71875 14.207031 C 14.71875 13.988281 14.882812 13.800781 15.097656 13.773438 L 16.820312 13.535156 C 16.914062 13.527344 17 13.480469 17.0625 13.417969 L 18.273438 12.324219 C 18.570312 12.054688 18.304688 11.761719 18.304688 11.761719 C 18.304688 11.761719 18.050781 11.453125 17.792969 11.683594 L 17.183594 12.238281 L 17.046875 12.359375 C 16.972656 12.425781 16.875 12.464844 16.777344 12.472656 L 13.699219 12.625 C 13.667969 12.625 13.636719 12.632812 13.605469 12.640625 C 13.5 12.671875 13.285156 12.769531 13.128906 13.070312 C 13.097656 13.132812 13.078125 13.203125 13.078125 13.277344 L 13.078125 14.953125 Z M 14.738281 14.976562 " fill-opacity="1" fill-rule="nonzero"/><path fill="#153a4f" d="M 14.738281 15.121094 C 14.660156 15.121094 14.59375 15.058594 14.59375 14.980469 L 14.574219 14.210938 C 14.574219 14.210938 14.574219 14.207031 14.574219 14.207031 C 14.574219 13.917969 14.792969 13.667969 15.078125 13.628906 L 16.800781 13.390625 C 16.800781 13.390625 16.800781 13.390625 16.804688 13.390625 C 16.863281 13.386719 16.917969 13.359375 16.957031 13.316406 C 16.960938 13.3125 16.960938 13.3125 16.964844 13.308594 L 18.175781 12.214844 C 18.28125 12.121094 18.273438 12.039062 18.261719 11.988281 C 18.242188 11.914062 18.195312 11.859375 18.195312 11.859375 C 18.191406 11.855469 18.195312 11.855469 18.191406 11.851562 C 18.167969 11.824219 18.085938 11.75 18.007812 11.742188 C 17.984375 11.742188 17.941406 11.746094 17.890625 11.792969 L 17.140625 12.46875 C 17.042969 12.554688 16.917969 12.609375 16.785156 12.617188 L 13.707031 12.769531 C 13.683594 12.773438 13.664062 12.773438 13.644531 12.78125 C 13.554688 12.804688 13.386719 12.886719 13.257812 13.136719 C 13.234375 13.179688 13.222656 13.226562 13.222656 13.277344 L 13.222656 14.953125 C 13.222656 15.035156 13.160156 15.101562 13.078125 15.101562 C 13 15.101562 12.933594 15.035156 12.933594 14.953125 L 12.933594 13.277344 C 12.933594 13.183594 12.957031 13.085938 13 13.003906 C 13.179688 12.660156 13.429688 12.539062 13.5625 12.5 C 13.601562 12.488281 13.644531 12.480469 13.691406 12.480469 L 16.769531 12.324219 C 16.835938 12.320312 16.898438 12.296875 16.949219 12.25 L 17.699219 11.574219 C 17.796875 11.488281 17.910156 11.445312 18.03125 11.453125 C 18.238281 11.46875 18.386719 11.636719 18.414062 11.664062 C 18.4375 11.695312 18.566406 11.851562 18.558594 12.0625 C 18.550781 12.199219 18.484375 12.328125 18.367188 12.433594 L 17.160156 13.523438 C 17.074219 13.609375 16.960938 13.667969 16.835938 13.679688 L 15.117188 13.917969 C 14.972656 13.9375 14.867188 14.058594 14.867188 14.207031 L 14.882812 14.972656 C 14.882812 15.050781 14.820312 15.117188 14.742188 15.121094 C 14.738281 15.121094 14.738281 15.121094 14.738281 15.121094 Z M 14.738281 15.121094 " fill-opacity="1" fill-rule="nonzero"/><g clip-path="url(#00ba87b343)"><path fill="#4ee584" d="M 13.363281 17.472656 C 13.375 16.78125 13.179688 15.878906 13.179688 15.878906 C 12.867188 14.402344 11.515625 13.285156 9.910156 13.285156 L 7.226562 13.285156 C 5.621094 13.285156 4.273438 14.402344 3.960938 15.878906 C 3.960938 15.878906 3.890625 16.207031 3.890625 16.53125 L 3.890625 18.207031 C 3.890625 18.582031 4.195312 18.886719 4.570312 18.886719 L 13.386719 18.886719 C 14.039062 18.886719 14.613281 18.519531 14.925781 17.972656 C 14.925781 17.972656 15.105469 17.542969 15.164062 17.261719 C 15.21875 16.980469 15.164062 14.976562 15.164062 14.976562 L 12.835938 14.976562 Z M 13.363281 17.472656 " fill-opacity="1" fill-rule="nonzero"/></g><g clip-path="url(#f5fb566376)"><path fill="#153a4f" d="M 13.386719 19.03125 L 4.570312 19.03125 C 4.117188 19.03125 3.746094 18.660156 3.746094 18.207031 L 3.746094 16.53125 C 3.746094 16.199219 3.816406 15.863281 3.820312 15.851562 C 4.152344 14.277344 5.585938 13.140625 7.226562 13.140625 L 9.910156 13.140625 C 11.171875 13.140625 12.308594 13.808594 12.917969 14.828125 L 15.164062 14.828125 C 15.242188 14.828125 15.304688 14.894531 15.308594 14.972656 C 15.3125 15.179688 15.363281 17 15.304688 17.289062 C 15.246094 17.582031 15.066406 18.011719 15.058594 18.027344 C 15.058594 18.035156 15.054688 18.039062 15.050781 18.046875 C 14.882812 18.339844 14.644531 18.585938 14.359375 18.757812 C 14.0625 18.9375 13.726562 19.03125 13.386719 19.03125 Z M 7.226562 13.429688 C 5.71875 13.429688 4.40625 14.472656 4.101562 15.910156 C 4.101562 15.914062 4.035156 16.226562 4.035156 16.53125 L 4.035156 18.207031 C 4.035156 18.5 4.277344 18.742188 4.570312 18.742188 L 13.386719 18.742188 C 13.957031 18.742188 14.496094 18.421875 14.796875 17.90625 C 14.820312 17.847656 14.972656 17.476562 15.019531 17.230469 C 15.058594 17.050781 15.042969 15.917969 15.023438 15.121094 L 13.074219 15.121094 C 13.183594 15.351562 13.265625 15.59375 13.320312 15.851562 C 13.328125 15.886719 13.519531 16.773438 13.507812 17.476562 C 13.507812 17.554688 13.441406 17.621094 13.363281 17.617188 C 13.28125 17.617188 13.21875 17.550781 13.21875 17.46875 C 13.230469 16.804688 13.039062 15.921875 13.039062 15.910156 C 12.972656 15.609375 12.863281 15.320312 12.714844 15.058594 C 12.710938 15.050781 12.707031 15.042969 12.703125 15.035156 C 12.152344 14.070312 11.089844 13.429688 9.910156 13.429688 Z M 7.226562 13.429688 " fill-opacity="1" fill-rule="nonzero"/></g><path fill="#ffffff" d="M 9.910156 12.265625 L 9.910156 13.375 C 9.910156 13.878906 9.308594 14.292969 8.570312 14.292969 C 7.832031 14.292969 7.226562 13.878906 7.226562 13.375 L 7.226562 12.265625 Z M 9.910156 12.265625 " fill-opacity="1" fill-rule="nonzero"/><path fill="#153a4f" d="M 8.570312 14.4375 C 8.183594 14.4375 7.820312 14.332031 7.539062 14.144531 C 7.246094 13.941406 7.082031 13.667969 7.082031 13.375 L 7.082031 12.265625 C 7.082031 12.1875 7.148438 12.121094 7.226562 12.121094 C 7.308594 12.121094 7.371094 12.1875 7.371094 12.265625 L 7.371094 13.375 C 7.371094 13.792969 7.921875 14.148438 8.570312 14.148438 C 9.21875 14.148438 9.765625 13.792969 9.765625 13.375 L 9.765625 12.265625 C 9.765625 12.1875 9.832031 12.121094 9.910156 12.121094 C 9.992188 12.121094 10.054688 12.1875 10.054688 12.265625 L 10.054688 13.375 C 10.054688 13.667969 9.894531 13.941406 9.597656 14.144531 C 9.320312 14.332031 8.953125 14.4375 8.570312 14.4375 Z M 8.570312 14.4375 " fill-opacity="1" fill-rule="nonzero"/><path fill="#ffffff" d="M 4.617188 8.503906 C 4.53125 8.664062 4.480469 8.847656 4.480469 9.042969 C 4.480469 9.679688 4.996094 10.195312 5.625 10.195312 C 5.636719 10.195312 5.648438 10.195312 5.660156 10.195312 C 5.867188 11.582031 7.066406 12.65625 8.503906 12.65625 C 9.941406 12.65625 11.140625 11.582031 11.351562 10.195312 C 11.359375 10.195312 11.371094 10.195312 11.382812 10.195312 C 12.015625 10.195312 12.527344 9.679688 12.527344 9.042969 C 12.527344 8.847656 12.476562 8.664062 12.390625 8.503906 Z M 4.617188 8.503906 " fill-opacity="1" fill-rule="nonzero"/><path fill="#153a4f" d="M 8.503906 12.800781 C 7.777344 12.800781 7.074219 12.539062 6.527344 12.054688 C 6.011719 11.605469 5.664062 11 5.535156 10.335938 C 4.867188 10.292969 4.335938 9.730469 4.335938 9.042969 C 4.335938 8.832031 4.390625 8.621094 4.488281 8.433594 C 4.527344 8.363281 4.613281 8.335938 4.683594 8.375 C 4.753906 8.410156 4.78125 8.5 4.746094 8.570312 C 4.667969 8.714844 4.625 8.878906 4.625 9.042969 C 4.625 9.597656 5.074219 10.050781 5.625 10.050781 C 5.628906 10.050781 5.632812 10.050781 5.632812 10.050781 C 5.640625 10.050781 5.648438 10.046875 5.652344 10.046875 C 5.726562 10.046875 5.789062 10.097656 5.800781 10.171875 C 6 11.503906 7.164062 12.511719 8.503906 12.511719 C 9.84375 12.511719 11.007812 11.503906 11.207031 10.171875 C 11.21875 10.097656 11.28125 10.046875 11.355469 10.046875 C 11.359375 10.046875 11.367188 10.050781 11.375 10.050781 C 11.375 10.050781 11.378906 10.050781 11.382812 10.050781 C 11.933594 10.050781 12.382812 9.597656 12.382812 9.042969 C 12.382812 8.878906 12.339844 8.714844 12.265625 8.570312 C 12.226562 8.5 12.253906 8.414062 12.324219 8.375 C 12.394531 8.335938 12.480469 8.363281 12.519531 8.433594 C 12.617188 8.621094 12.671875 8.832031 12.671875 9.042969 C 12.671875 9.730469 12.140625 10.292969 11.472656 10.335938 C 11.34375 11 10.996094 11.605469 10.484375 12.054688 C 9.933594 12.539062 9.230469 12.800781 8.503906 12.800781 Z M 8.503906 12.800781 " fill-opacity="1" fill-rule="nonzero"/><path fill="#ffaf83" d="M 12.507812 7.570312 L 11.0625 7.570312 L 11.0625 7.554688 C 11.0625 6.179688 9.941406 5.050781 8.570312 5.050781 C 7.199219 5.050781 6.078125 6.179688 6.078125 7.554688 L 4.609375 7.570312 C 4.339844 7.570312 4.121094 7.808594 4.148438 8.085938 C 4.171875 8.324219 4.390625 8.503906 4.632812 8.503906 L 12.527344 8.503906 C 12.800781 8.503906 13.015625 8.265625 12.988281 7.988281 C 12.964844 7.746094 12.75 7.570312 12.507812 7.570312 Z M 12.507812 7.570312 " fill-opacity="1" fill-rule="nonzero"/><path fill="#153a4f" d="M 12.527344 8.648438 L 4.632812 8.648438 C 4.3125 8.648438 4.035156 8.40625 4.003906 8.097656 C 3.988281 7.925781 4.042969 7.753906 4.160156 7.628906 C 4.273438 7.5 4.4375 7.425781 4.609375 7.425781 L 5.9375 7.414062 C 5.972656 6.761719 6.242188 6.152344 6.707031 5.683594 C 7.207031 5.179688 7.867188 4.90625 8.570312 4.90625 C 9.269531 4.90625 9.933594 5.179688 10.429688 5.683594 C 10.898438 6.15625 11.171875 6.769531 11.203125 7.425781 L 12.507812 7.425781 C 12.828125 7.425781 13.101562 7.667969 13.132812 7.972656 C 13.152344 8.144531 13.09375 8.316406 12.980469 8.445312 C 12.863281 8.574219 12.699219 8.648438 12.527344 8.648438 Z M 8.570312 5.195312 C 7.273438 5.195312 6.222656 6.253906 6.222656 7.554688 C 6.222656 7.636719 6.15625 7.699219 6.078125 7.703125 L 4.609375 7.714844 C 4.519531 7.714844 4.433594 7.753906 4.375 7.824219 C 4.3125 7.890625 4.285156 7.976562 4.292969 8.070312 C 4.308594 8.230469 4.457031 8.355469 4.632812 8.355469 L 12.527344 8.355469 C 12.617188 8.355469 12.703125 8.320312 12.765625 8.25 C 12.824219 8.183594 12.855469 8.09375 12.84375 8.003906 C 12.828125 7.84375 12.679688 7.714844 12.507812 7.714844 L 11.0625 7.714844 C 10.980469 7.714844 10.917969 7.652344 10.917969 7.570312 L 10.917969 7.554688 C 10.917969 6.253906 9.863281 5.195312 8.570312 5.195312 Z M 8.570312 5.195312 " fill-opacity="1" fill-rule="nonzero"/><g clip-path="url(#2a27853b4b)"><path fill="#ffffff" d="M 17.984375 5.367188 C 17.984375 5.703125 17.917969 6.027344 17.789062 6.339844 C 17.660156 6.652344 17.476562 6.925781 17.238281 7.164062 C 16.996094 7.402344 16.722656 7.585938 16.410156 7.714844 C 16.097656 7.84375 15.773438 7.90625 15.433594 7.90625 C 15.097656 7.90625 14.773438 7.84375 14.460938 7.714844 C 14.148438 7.585938 13.871094 7.402344 13.632812 7.164062 C 13.394531 6.925781 13.210938 6.652344 13.078125 6.339844 C 12.949219 6.027344 12.886719 5.703125 12.886719 5.367188 C 12.886719 5.03125 12.949219 4.707031 13.078125 4.398438 C 13.210938 4.085938 13.394531 3.8125 13.632812 3.574219 C 13.871094 3.335938 14.148438 3.152344 14.460938 3.023438 C 14.773438 2.894531 15.097656 2.828125 15.433594 2.828125 C 15.773438 2.828125 16.097656 2.894531 16.410156 3.023438 C 16.722656 3.152344 16.996094 3.335938 17.238281 3.574219 C 17.476562 3.8125 17.660156 4.085938 17.789062 4.398438 C 17.917969 4.707031 17.984375 5.03125 17.984375 5.367188 Z M 17.984375 5.367188 " fill-opacity="1" fill-rule="nonzero"/></g><g clip-path="url(#66df275574)"><path fill="#153a4f" d="M 15.429688 8.054688 C 14.839844 8.054688 14.269531 7.859375 13.792969 7.496094 C 13.222656 7.058594 12.855469 6.425781 12.765625 5.714844 C 12.671875 5.003906 12.863281 4.300781 13.300781 3.734375 C 13.738281 3.164062 14.371094 2.800781 15.085938 2.707031 C 15.796875 2.613281 16.503906 2.804688 17.074219 3.238281 C 17.648438 3.675781 18.011719 4.308594 18.105469 5.023438 C 18.199219 5.734375 18.007812 6.4375 17.570312 7.003906 C 17.132812 7.570312 16.496094 7.9375 15.785156 8.03125 C 15.664062 8.046875 15.546875 8.054688 15.429688 8.054688 Z M 15.4375 2.976562 C 14.714844 2.976562 14 3.296875 13.527344 3.910156 C 13.136719 4.417969 12.96875 5.042969 13.050781 5.675781 C 13.132812 6.3125 13.460938 6.875 13.96875 7.265625 C 14.40625 7.597656 14.921875 7.761719 15.433594 7.761719 C 16.15625 7.761719 16.867188 7.4375 17.34375 6.824219 C 17.730469 6.320312 17.902344 5.691406 17.820312 5.058594 C 17.734375 4.425781 17.410156 3.859375 16.898438 3.472656 C 16.464844 3.136719 15.949219 2.976562 15.4375 2.976562 Z M 15.4375 2.976562 " fill-opacity="1" fill-rule="nonzero"/></g><path fill="#153a4f" d="M 15.789062 6.632812 L 15.082031 6.632812 C 14.78125 6.632812 14.539062 6.390625 14.539062 6.089844 L 14.539062 5.863281 C 14.539062 5.785156 14.601562 5.71875 14.683594 5.71875 C 14.761719 5.71875 14.828125 5.785156 14.828125 5.863281 L 14.828125 6.089844 C 14.828125 6.230469 14.941406 6.339844 15.082031 6.339844 L 15.789062 6.339844 C 15.929688 6.339844 16.042969 6.230469 16.042969 6.089844 L 16.042969 5.765625 C 16.042969 5.625 15.929688 5.515625 15.789062 5.515625 L 15.082031 5.515625 C 14.78125 5.515625 14.539062 5.269531 14.539062 4.972656 L 14.539062 4.644531 C 14.539062 4.347656 14.78125 4.105469 15.082031 4.105469 L 15.789062 4.105469 C 16.089844 4.105469 16.332031 4.347656 16.332031 4.644531 L 16.332031 4.867188 C 16.332031 4.945312 16.265625 5.011719 16.1875 5.011719 C 16.105469 5.011719 16.042969 4.945312 16.042969 4.867188 L 16.042969 4.644531 C 16.042969 4.507812 15.929688 4.394531 15.789062 4.394531 L 15.082031 4.394531 C 14.941406 4.394531 14.828125 4.507812 14.828125 4.644531 L 14.828125 4.972656 C 14.828125 5.109375 14.941406 5.222656 15.082031 5.222656 L 15.789062 5.222656 C 16.089844 5.222656 16.332031 5.464844 16.332031 5.765625 L 16.332031 6.089844 C 16.332031 6.390625 16.089844 6.632812 15.789062 6.632812 Z M 15.789062 6.632812 " fill-opacity="1" fill-rule="nonzero"/><path fill="#153a4f" d="M 15.433594 7.160156 C 15.355469 7.160156 15.289062 7.09375 15.289062 7.015625 L 15.289062 6.488281 C 15.289062 6.40625 15.355469 6.339844 15.433594 6.339844 C 15.515625 6.339844 15.578125 6.40625 15.578125 6.488281 L 15.578125 7.015625 C 15.578125 7.09375 15.515625 7.160156 15.433594 7.160156 Z M 15.433594 7.160156 " fill-opacity="1" fill-rule="nonzero"/><path fill="#153a4f" d="M 15.433594 4.394531 C 15.355469 4.394531 15.289062 4.332031 15.289062 4.25 L 15.289062 3.722656 C 15.289062 3.640625 15.355469 3.578125 15.433594 3.578125 C 15.515625 3.578125 15.578125 3.640625 15.578125 3.722656 L 15.578125 4.25 C 15.578125 4.332031 15.515625 4.394531 15.433594 4.394531 Z M 15.433594 4.394531 " fill-opacity="1" fill-rule="nonzero"/><path fill="#153a4f" d="M 15.433594 10.816406 C 15.355469 10.816406 15.289062 10.75 15.289062 10.667969 L 15.289062 7.90625 C 15.289062 7.828125 15.355469 7.761719 15.433594 7.761719 C 15.515625 7.761719 15.578125 7.828125 15.578125 7.90625 L 15.578125 10.667969 C 15.578125 10.75 15.515625 10.816406 15.433594 10.816406 Z M 15.433594 10.816406 " fill-opacity="1" fill-rule="nonzero"/><g clip-path="url(#9b52073799)"><path fill="#153a4f" d="M 15.273438 32.53125 C 15.203125 32.53125 15.140625 32.480469 15.128906 32.40625 L 14.917969 30.671875 C 14.898438 30.535156 14.960938 30.402344 15.082031 30.316406 C 15.085938 30.3125 15.09375 30.308594 15.097656 30.304688 L 16.621094 29.460938 C 16.6875 29.421875 16.777344 29.449219 16.816406 29.519531 C 16.855469 29.589844 16.828125 29.675781 16.757812 29.714844 L 15.246094 30.554688 C 15.226562 30.570312 15.199219 30.597656 15.203125 30.636719 L 15.417969 32.371094 C 15.425781 32.449219 15.371094 32.523438 15.292969 32.53125 C 15.285156 32.53125 15.277344 32.53125 15.273438 32.53125 Z M 15.273438 32.53125 " fill-opacity="1" fill-rule="nonzero"/></g><path fill="#153a4f" d="M 18.835938 31.765625 C 17.488281 31.765625 16.160156 31.371094 15.03125 30.621094 C 14.964844 30.578125 14.945312 30.488281 14.988281 30.421875 C 15.03125 30.355469 15.121094 30.335938 15.1875 30.378906 C 16.304688 31.117188 17.570312 31.476562 18.828125 31.476562 C 20.585938 31.476562 22.332031 30.773438 23.625 29.417969 C 25.800781 27.140625 26.085938 23.601562 24.304688 21.003906 C 24.257812 20.9375 24.273438 20.847656 24.339844 20.804688 C 24.40625 20.757812 24.496094 20.773438 24.542969 20.839844 C 24.992188 21.496094 25.324219 22.222656 25.53125 22.996094 C 25.730469 23.753906 25.800781 24.535156 25.742188 25.320312 C 25.683594 26.109375 25.496094 26.875 25.179688 27.597656 C 24.851562 28.347656 24.398438 29.027344 23.832031 29.621094 C 23.257812 30.222656 22.589844 30.710938 21.851562 31.070312 C 21.136719 31.417969 20.371094 31.640625 19.578125 31.722656 C 19.328125 31.75 19.082031 31.765625 18.835938 31.765625 Z M 18.835938 31.765625 " fill-opacity="1" fill-rule="nonzero"/><path fill="#153a4f" d="M 20.804688 20.082031 C 20.753906 20.082031 20.703125 20.054688 20.679688 20.007812 C 20.640625 19.9375 20.664062 19.847656 20.734375 19.808594 L 22.277344 18.953125 C 22.300781 18.941406 22.3125 18.917969 22.308594 18.890625 L 22.09375 17.132812 C 22.082031 17.054688 22.140625 16.980469 22.21875 16.972656 C 22.296875 16.960938 22.371094 17.019531 22.378906 17.097656 L 22.597656 18.855469 C 22.613281 19 22.542969 19.140625 22.417969 19.210938 L 20.875 20.0625 C 20.851562 20.078125 20.828125 20.082031 20.804688 20.082031 Z M 20.804688 20.082031 " fill-opacity="1" fill-rule="nonzero"/><path fill="#153a4f" d="M 13.222656 28.78125 C 13.179688 28.78125 13.132812 28.761719 13.105469 28.71875 C 12.660156 28.0625 12.332031 27.339844 12.128906 26.566406 C 11.933594 25.8125 11.863281 25.03125 11.925781 24.25 C 11.984375 23.464844 12.175781 22.699219 12.492188 21.980469 C 12.816406 21.238281 13.269531 20.558594 13.832031 19.96875 C 14.398438 19.375 15.054688 18.894531 15.777344 18.535156 C 16.480469 18.1875 17.230469 17.964844 18.011719 17.871094 C 18.785156 17.78125 19.5625 17.816406 20.320312 17.984375 C 21.09375 18.15625 21.828125 18.457031 22.496094 18.875 C 22.566406 18.917969 22.585938 19.007812 22.542969 19.078125 C 22.5 19.144531 22.414062 19.164062 22.34375 19.125 C 19.699219 17.460938 16.207031 17.902344 14.042969 20.167969 C 11.878906 22.4375 11.585938 25.964844 13.34375 28.554688 C 13.386719 28.621094 13.371094 28.710938 13.304688 28.757812 C 13.28125 28.773438 13.253906 28.78125 13.222656 28.78125 Z M 13.222656 28.78125 " fill-opacity="1" fill-rule="nonzero"/><path fill="#ffaf83" d="M 14.226562 25.804688 L 14.960938 25.804688 C 15.042969 25.804688 15.113281 25.863281 15.140625 25.941406 C 15.207031 26.152344 15.289062 26.355469 15.390625 26.550781 C 15.429688 26.625 15.417969 26.714844 15.359375 26.773438 L 14.839844 27.296875 C 14.699219 27.4375 14.699219 27.664062 14.839844 27.800781 L 15.808594 28.773438 C 15.945312 28.914062 16.171875 28.914062 16.308594 28.773438 L 16.828125 28.253906 C 16.886719 28.195312 16.976562 28.183594 17.050781 28.222656 C 17.242188 28.320312 17.445312 28.40625 17.65625 28.472656 C 17.734375 28.5 17.792969 28.570312 17.792969 28.65625 L 17.792969 29.390625 C 17.792969 29.589844 17.949219 29.75 18.148438 29.75 L 19.515625 29.75 C 19.710938 29.75 19.871094 29.589844 19.871094 29.390625 L 19.871094 28.65625 C 19.871094 28.570312 19.925781 28.5 20.003906 28.472656 C 20.214844 28.40625 20.417969 28.320312 20.609375 28.222656 C 20.683594 28.183594 20.773438 28.195312 20.832031 28.253906 L 21.351562 28.773438 C 21.492188 28.914062 21.714844 28.914062 21.855469 28.773438 L 22.820312 27.800781 C 22.960938 27.664062 22.960938 27.4375 22.820312 27.296875 L 22.304688 26.773438 C 22.246094 26.714844 22.230469 26.625 22.269531 26.550781 C 22.371094 26.355469 22.457031 26.152344 22.523438 25.941406 C 22.546875 25.863281 22.617188 25.804688 22.703125 25.804688 L 23.433594 25.804688 C 23.632812 25.804688 23.789062 25.644531 23.789062 25.449219 L 23.789062 24.074219 C 23.789062 23.875 23.632812 23.714844 23.433594 23.714844 L 22.703125 23.714844 C 22.617188 23.714844 22.546875 23.660156 22.523438 23.582031 C 22.457031 23.367188 22.371094 23.164062 22.269531 22.96875 C 22.230469 22.894531 22.246094 22.804688 22.304688 22.746094 L 22.820312 22.226562 C 22.960938 22.085938 22.960938 21.859375 22.820312 21.71875 L 21.855469 20.746094 C 21.714844 20.605469 21.492188 20.605469 21.351562 20.746094 L 20.832031 21.269531 C 20.773438 21.328125 20.683594 21.339844 20.609375 21.300781 C 20.417969 21.199219 20.214844 21.117188 20.003906 21.046875 C 19.925781 21.023438 19.871094 20.949219 19.871094 20.867188 L 19.871094 20.128906 C 19.871094 19.933594 19.710938 19.773438 19.515625 19.773438 L 18.148438 19.773438 C 17.949219 19.773438 17.792969 19.933594 17.792969 20.128906 L 17.792969 20.867188 C 17.792969 20.949219 17.734375 21.023438 17.65625 21.046875 C 17.445312 21.117188 17.242188 21.199219 17.050781 21.300781 C 16.976562 21.339844 16.886719 21.328125 16.828125 21.269531 L 16.308594 20.746094 C 16.171875 20.605469 15.945312 20.605469 15.808594 20.746094 L 14.839844 21.71875 C 14.699219 21.859375 14.699219 22.085938 14.839844 22.226562 L 15.359375 22.746094 C 15.417969 22.804688 15.429688 22.894531 15.390625 22.96875 C 15.289062 23.164062 15.207031 23.367188 15.140625 23.582031 C 15.113281 23.660156 15.042969 23.714844 14.960938 23.714844 L 14.226562 23.714844 C 14.03125 23.714844 13.871094 23.875 13.871094 24.074219 L 13.871094 25.449219 C 13.871094 25.644531 14.03125 25.804688 14.226562 25.804688 Z M 14.226562 25.804688 " fill-opacity="1" fill-rule="nonzero"/><path fill="#153a4f" d="M 19.515625 29.894531 L 18.148438 29.894531 C 18.011719 29.894531 17.886719 29.84375 17.792969 29.746094 C 17.699219 29.652344 17.648438 29.527344 17.648438 29.390625 L 17.648438 28.65625 C 17.648438 28.636719 17.632812 28.617188 17.613281 28.613281 C 17.398438 28.542969 17.1875 28.453125 16.984375 28.351562 C 16.964844 28.339844 16.945312 28.34375 16.929688 28.355469 L 16.410156 28.878906 C 16.21875 29.074219 15.898438 29.074219 15.703125 28.878906 L 14.738281 27.90625 C 14.644531 27.808594 14.589844 27.683594 14.589844 27.550781 C 14.589844 27.414062 14.644531 27.289062 14.738281 27.195312 L 15.257812 26.671875 C 15.269531 26.660156 15.273438 26.636719 15.261719 26.617188 C 15.15625 26.414062 15.070312 26.203125 15 25.984375 C 14.996094 25.964844 14.976562 25.953125 14.960938 25.953125 L 14.226562 25.953125 C 13.949219 25.953125 13.726562 25.726562 13.726562 25.449219 L 13.726562 24.074219 C 13.726562 23.796875 13.949219 23.570312 14.226562 23.570312 L 14.960938 23.570312 C 14.976562 23.570312 14.996094 23.554688 15 23.535156 C 15.070312 23.320312 15.15625 23.105469 15.261719 22.902344 C 15.273438 22.882812 15.269531 22.863281 15.257812 22.847656 L 14.738281 22.328125 C 14.644531 22.234375 14.589844 22.105469 14.589844 21.972656 C 14.589844 21.839844 14.644531 21.710938 14.738281 21.617188 L 15.703125 20.644531 C 15.800781 20.550781 15.925781 20.496094 16.058594 20.496094 C 16.191406 20.496094 16.316406 20.550781 16.410156 20.644531 L 16.929688 21.164062 C 16.945312 21.179688 16.964844 21.179688 16.984375 21.171875 C 17.183594 21.066406 17.398438 20.980469 17.613281 20.910156 C 17.632812 20.902344 17.648438 20.886719 17.648438 20.867188 L 17.648438 20.128906 C 17.648438 19.851562 17.871094 19.625 18.148438 19.625 L 19.515625 19.625 C 19.789062 19.625 20.015625 19.851562 20.015625 20.128906 L 20.015625 20.867188 C 20.015625 20.886719 20.027344 20.902344 20.046875 20.910156 C 20.265625 20.980469 20.476562 21.066406 20.675781 21.171875 C 20.695312 21.179688 20.71875 21.179688 20.730469 21.164062 L 21.25 20.644531 C 21.34375 20.550781 21.46875 20.496094 21.601562 20.496094 C 21.738281 20.496094 21.863281 20.550781 21.957031 20.644531 L 22.925781 21.617188 C 23.019531 21.710938 23.070312 21.839844 23.070312 21.972656 C 23.070312 22.105469 23.019531 22.234375 22.925781 22.328125 L 22.40625 22.847656 C 22.390625 22.863281 22.390625 22.882812 22.398438 22.902344 C 22.503906 23.105469 22.589844 23.320312 22.660156 23.535156 C 22.667969 23.554688 22.683594 23.570312 22.703125 23.570312 L 23.433594 23.570312 C 23.710938 23.570312 23.933594 23.796875 23.933594 24.074219 L 23.933594 25.449219 C 23.933594 25.726562 23.710938 25.953125 23.433594 25.953125 L 22.703125 25.953125 C 22.683594 25.953125 22.667969 25.964844 22.660156 25.984375 C 22.589844 26.203125 22.503906 26.414062 22.398438 26.617188 C 22.390625 26.636719 22.390625 26.660156 22.40625 26.671875 L 22.925781 27.195312 C 23.019531 27.289062 23.070312 27.414062 23.070312 27.550781 C 23.070312 27.683594 23.019531 27.808594 22.925781 27.90625 L 21.957031 28.878906 C 21.863281 28.972656 21.738281 29.023438 21.601562 29.023438 C 21.46875 29.023438 21.34375 28.972656 21.25 28.878906 L 20.730469 28.355469 C 20.71875 28.34375 20.695312 28.339844 20.675781 28.351562 C 20.476562 28.453125 20.265625 28.542969 20.046875 28.613281 C 20.027344 28.617188 20.015625 28.636719 20.015625 28.65625 L 20.015625 29.390625 C 20.015625 29.667969 19.789062 29.894531 19.515625 29.894531 Z M 16.960938 28.054688 C 17.011719 28.054688 17.066406 28.066406 17.117188 28.089844 C 17.304688 28.1875 17.5 28.269531 17.699219 28.335938 C 17.839844 28.378906 17.9375 28.507812 17.9375 28.65625 L 17.9375 29.390625 C 17.9375 29.449219 17.957031 29.503906 17.996094 29.542969 C 18.039062 29.582031 18.089844 29.605469 18.148438 29.605469 L 19.515625 29.605469 C 19.632812 29.605469 19.726562 29.507812 19.726562 29.390625 L 19.726562 28.65625 C 19.726562 28.507812 19.820312 28.378906 19.960938 28.335938 C 20.160156 28.269531 20.359375 28.1875 20.542969 28.089844 C 20.675781 28.023438 20.832031 28.046875 20.9375 28.152344 L 21.453125 28.671875 C 21.535156 28.753906 21.667969 28.753906 21.753906 28.671875 L 22.71875 27.699219 C 22.800781 27.617188 22.800781 27.480469 22.71875 27.398438 L 22.199219 26.878906 C 22.097656 26.773438 22.074219 26.617188 22.140625 26.484375 C 22.238281 26.296875 22.320312 26.097656 22.382812 25.898438 C 22.429688 25.753906 22.558594 25.660156 22.703125 25.660156 L 23.433594 25.660156 C 23.550781 25.660156 23.644531 25.566406 23.644531 25.449219 L 23.644531 24.074219 C 23.644531 23.957031 23.550781 23.859375 23.433594 23.859375 L 22.703125 23.859375 C 22.558594 23.859375 22.429688 23.765625 22.382812 23.625 C 22.320312 23.421875 22.238281 23.226562 22.140625 23.039062 C 22.074219 22.90625 22.097656 22.746094 22.199219 22.644531 L 22.71875 22.121094 C 22.800781 22.039062 22.800781 21.90625 22.71875 21.824219 L 21.753906 20.847656 C 21.667969 20.765625 21.535156 20.765625 21.453125 20.847656 L 20.9375 21.371094 C 20.832031 21.472656 20.675781 21.5 20.542969 21.429688 C 20.359375 21.332031 20.160156 21.25 19.960938 21.1875 C 19.820312 21.140625 19.726562 21.011719 19.726562 20.867188 L 19.726562 20.128906 C 19.726562 20.011719 19.632812 19.917969 19.515625 19.917969 L 18.148438 19.917969 C 18.03125 19.917969 17.9375 20.011719 17.9375 20.128906 L 17.9375 20.867188 C 17.9375 21.011719 17.839844 21.140625 17.699219 21.1875 C 17.5 21.25 17.304688 21.332031 17.117188 21.429688 C 16.984375 21.5 16.828125 21.472656 16.726562 21.371094 L 16.207031 20.847656 C 16.167969 20.808594 16.113281 20.789062 16.058594 20.789062 C 16.003906 20.789062 15.949219 20.808594 15.910156 20.847656 L 14.941406 21.824219 C 14.902344 21.863281 14.878906 21.914062 14.878906 21.972656 C 14.878906 22.027344 14.902344 22.082031 14.941406 22.121094 L 15.460938 22.644531 C 15.5625 22.746094 15.585938 22.90625 15.519531 23.039062 C 15.421875 23.226562 15.339844 23.421875 15.277344 23.625 C 15.234375 23.765625 15.105469 23.859375 14.960938 23.859375 L 14.226562 23.859375 C 14.109375 23.859375 14.015625 23.957031 14.015625 24.074219 L 14.015625 25.449219 C 14.015625 25.566406 14.109375 25.660156 14.226562 25.660156 L 14.960938 25.660156 C 15.105469 25.660156 15.234375 25.753906 15.277344 25.898438 C 15.339844 26.097656 15.421875 26.296875 15.519531 26.484375 C 15.585938 26.617188 15.5625 26.773438 15.460938 26.878906 L 14.941406 27.398438 C 14.902344 27.441406 14.878906 27.492188 14.878906 27.550781 C 14.878906 27.605469 14.902344 27.660156 14.941406 27.699219 L 15.910156 28.671875 C 15.992188 28.753906 16.125 28.753906 16.207031 28.671875 L 16.726562 28.152344 C 16.789062 28.085938 16.875 28.054688 16.960938 28.054688 Z M 16.960938 28.054688 " fill-opacity="1" fill-rule="nonzero"/><path fill="#ffffff" d="M 21.210938 24.761719 C 21.210938 25.078125 21.152344 25.382812 21.03125 25.675781 C 20.910156 25.972656 20.738281 26.230469 20.515625 26.453125 C 20.292969 26.679688 20.035156 26.851562 19.742188 26.972656 C 19.449219 27.09375 19.148438 27.15625 18.832031 27.15625 C 18.515625 27.15625 18.210938 27.09375 17.917969 26.972656 C 17.628906 26.851562 17.371094 26.679688 17.148438 26.453125 C 16.921875 26.230469 16.75 25.972656 16.628906 25.675781 C 16.507812 25.382812 16.449219 25.078125 16.449219 24.761719 C 16.449219 24.441406 16.507812 24.136719 16.628906 23.84375 C 16.75 23.550781 16.921875 23.292969 17.148438 23.066406 C 17.371094 22.84375 17.628906 22.667969 17.917969 22.546875 C 18.210938 22.425781 18.515625 22.367188 18.832031 22.367188 C 19.148438 22.367188 19.449219 22.425781 19.742188 22.546875 C 20.035156 22.667969 20.292969 22.84375 20.515625 23.066406 C 20.738281 23.292969 20.910156 23.550781 21.03125 23.84375 C 21.152344 24.136719 21.210938 24.441406 21.210938 24.761719 Z M 21.210938 24.761719 " fill-opacity="1" fill-rule="nonzero"/><path fill="#153a4f" d="M 18.832031 27.300781 C 17.4375 27.300781 16.304688 26.160156 16.304688 24.761719 C 16.304688 23.359375 17.4375 22.21875 18.832031 22.21875 C 20.222656 22.21875 21.355469 23.359375 21.355469 24.761719 C 21.355469 26.160156 20.222656 27.300781 18.832031 27.300781 Z M 18.832031 22.511719 C 17.597656 22.511719 16.59375 23.519531 16.59375 24.761719 C 16.59375 26 17.597656 27.011719 18.832031 27.011719 C 20.0625 27.011719 21.066406 26 21.066406 24.761719 C 21.066406 23.519531 20.0625 22.511719 18.832031 22.511719 Z M 18.832031 22.511719 " fill-opacity="1" fill-rule="nonzero"/><path fill="#153a4f" d="M 18.832031 24.960938 C 18.75 24.960938 18.6875 24.898438 18.6875 24.816406 L 18.6875 23.441406 C 18.6875 23.363281 18.75 23.296875 18.832031 23.296875 C 18.910156 23.296875 18.976562 23.363281 18.976562 23.441406 L 18.976562 24.816406 C 18.976562 24.898438 18.910156 24.960938 18.832031 24.960938 Z M 18.832031 24.960938 " fill-opacity="1" fill-rule="nonzero"/><path fill="#153a4f" d="M 18.832031 26.160156 C 18.75 26.160156 18.6875 26.09375 18.6875 26.015625 L 18.6875 25.859375 C 18.6875 25.777344 18.75 25.714844 18.832031 25.714844 C 18.910156 25.714844 18.976562 25.777344 18.976562 25.859375 L 18.976562 26.015625 C 18.976562 26.09375 18.910156 26.160156 18.832031 26.160156 Z M 18.832031 26.160156 " fill-opacity="1" fill-rule="nonzero"/><path fill="#ffffff" d="M 27.035156 21.832031 C 27.035156 22.183594 26.96875 22.515625 26.835938 22.839844 C 26.699219 23.160156 26.511719 23.445312 26.261719 23.691406 C 26.015625 23.9375 25.730469 24.128906 25.40625 24.261719 C 25.085938 24.394531 24.746094 24.460938 24.398438 24.460938 C 24.046875 24.460938 23.710938 24.394531 23.390625 24.261719 C 23.066406 24.128906 22.78125 23.9375 22.53125 23.691406 C 22.285156 23.445312 22.09375 23.160156 21.960938 22.839844 C 21.828125 22.515625 21.761719 22.183594 21.761719 21.832031 C 21.761719 21.484375 21.828125 21.148438 21.960938 20.828125 C 22.09375 20.507812 22.285156 20.222656 22.53125 19.976562 C 22.78125 19.730469 23.066406 19.539062 23.390625 19.40625 C 23.710938 19.273438 24.046875 19.207031 24.398438 19.207031 C 24.746094 19.207031 25.085938 19.273438 25.40625 19.40625 C 25.730469 19.539062 26.015625 19.730469 26.261719 19.976562 C 26.511719 20.222656 26.699219 20.507812 26.835938 20.828125 C 26.96875 21.148438 27.035156 21.484375 27.035156 21.832031 Z M 27.035156 21.832031 " fill-opacity="1" fill-rule="nonzero"/><path fill="#153a4f" d="M 24.390625 24.605469 C 23.785156 24.605469 23.195312 24.410156 22.703125 24.03125 C 22.113281 23.582031 21.734375 22.925781 21.640625 22.191406 C 21.542969 21.457031 21.738281 20.730469 22.191406 20.144531 C 22.644531 19.558594 23.300781 19.179688 24.035156 19.085938 C 24.773438 18.988281 25.503906 19.183594 26.09375 19.632812 C 26.683594 20.085938 27.0625 20.742188 27.15625 21.476562 C 27.253906 22.210938 27.054688 22.9375 26.605469 23.523438 C 26.152344 24.109375 25.496094 24.488281 24.757812 24.582031 C 24.636719 24.597656 24.515625 24.605469 24.390625 24.605469 Z M 24.402344 19.351562 C 23.652344 19.351562 22.910156 19.6875 22.421875 20.324219 C 22.015625 20.847656 21.839844 21.496094 21.925781 22.152344 C 22.011719 22.8125 22.351562 23.398438 22.878906 23.800781 C 23.96875 24.636719 25.539062 24.429688 26.375 23.34375 C 26.78125 22.820312 26.957031 22.171875 26.871094 21.515625 C 26.785156 20.855469 26.445312 20.269531 25.917969 19.867188 C 25.464844 19.519531 24.929688 19.351562 24.402344 19.351562 Z M 24.402344 19.351562 " fill-opacity="1" fill-rule="nonzero"/><path fill="#153a4f" d="M 24.757812 23.109375 L 24.039062 23.109375 C 23.738281 23.109375 23.492188 22.863281 23.492188 22.5625 L 23.492188 22.335938 C 23.492188 22.253906 23.558594 22.1875 23.636719 22.1875 C 23.71875 22.1875 23.78125 22.253906 23.78125 22.335938 L 23.78125 22.5625 C 23.78125 22.703125 23.898438 22.816406 24.039062 22.816406 L 24.757812 22.816406 C 24.898438 22.816406 25.011719 22.703125 25.011719 22.5625 L 25.011719 22.234375 C 25.011719 22.09375 24.898438 21.980469 24.757812 21.980469 L 24.039062 21.980469 C 23.738281 21.980469 23.492188 21.734375 23.492188 21.433594 L 23.492188 21.105469 C 23.492188 20.804688 23.738281 20.558594 24.039062 20.558594 L 24.757812 20.558594 C 25.058594 20.558594 25.300781 20.804688 25.300781 21.105469 L 25.300781 21.324219 C 25.300781 21.40625 25.238281 21.472656 25.15625 21.472656 C 25.078125 21.472656 25.011719 21.40625 25.011719 21.324219 L 25.011719 21.105469 C 25.011719 20.964844 24.898438 20.847656 24.757812 20.847656 L 24.039062 20.847656 C 23.898438 20.847656 23.78125 20.964844 23.78125 21.105469 L 23.78125 21.433594 C 23.78125 21.574219 23.898438 21.6875 24.039062 21.6875 L 24.757812 21.6875 C 25.058594 21.6875 25.300781 21.933594 25.300781 22.234375 L 25.300781 22.5625 C 25.300781 22.863281 25.058594 23.109375 24.757812 23.109375 Z M 24.757812 23.109375 " fill-opacity="1" fill-rule="nonzero"/><path fill="#153a4f" d="M 24.398438 23.640625 C 24.316406 23.640625 24.253906 23.578125 24.253906 23.496094 L 24.253906 22.964844 C 24.253906 22.882812 24.316406 22.816406 24.398438 22.816406 C 24.476562 22.816406 24.542969 22.882812 24.542969 22.964844 L 24.542969 23.496094 C 24.542969 23.578125 24.476562 23.640625 24.398438 23.640625 Z M 24.398438 23.640625 " fill-opacity="1" fill-rule="nonzero"/><path fill="#153a4f" d="M 24.398438 20.847656 C 24.316406 20.847656 24.253906 20.785156 24.253906 20.703125 L 24.253906 20.171875 C 24.253906 20.089844 24.316406 20.023438 24.398438 20.023438 C 24.476562 20.023438 24.542969 20.089844 24.542969 20.171875 L 24.542969 20.703125 C 24.542969 20.785156 24.476562 20.847656 24.398438 20.847656 Z M 24.398438 20.847656 " fill-opacity="1" fill-rule="nonzero"/><path fill="#ffffff" d="M 15.789062 27.613281 C 15.789062 27.960938 15.722656 28.296875 15.589844 28.617188 C 15.457031 28.941406 15.265625 29.222656 15.015625 29.46875 C 14.769531 29.71875 14.484375 29.90625 14.160156 30.039062 C 13.839844 30.171875 13.5 30.238281 13.152344 30.238281 C 12.800781 30.238281 12.464844 30.171875 12.144531 30.039062 C 11.820312 29.90625 11.535156 29.71875 11.289062 29.46875 C 11.039062 29.222656 10.847656 28.941406 10.714844 28.617188 C 10.582031 28.296875 10.515625 27.960938 10.515625 27.613281 C 10.515625 27.265625 10.582031 26.929688 10.714844 26.609375 C 10.847656 26.285156 11.039062 26 11.289062 25.753906 C 11.535156 25.507812 11.820312 25.320312 12.144531 25.1875 C 12.464844 25.050781 12.800781 24.984375 13.152344 24.984375 C 13.5 24.984375 13.839844 25.050781 14.160156 25.1875 C 14.484375 25.320312 14.769531 25.507812 15.015625 25.753906 C 15.265625 26 15.457031 26.285156 15.589844 26.609375 C 15.722656 26.929688 15.789062 27.265625 15.789062 27.613281 Z M 15.789062 27.613281 " fill-opacity="1" fill-rule="nonzero"/><path fill="#153a4f" d="M 13.144531 30.386719 C 12.539062 30.386719 11.949219 30.1875 11.457031 29.8125 C 10.867188 29.359375 10.488281 28.707031 10.394531 27.96875 C 10.296875 27.238281 10.492188 26.511719 10.945312 25.921875 C 11.398438 25.335938 12.054688 24.960938 12.789062 24.863281 C 13.527344 24.769531 14.257812 24.964844 14.847656 25.414062 C 15.4375 25.867188 15.816406 26.519531 15.910156 27.257812 C 16.007812 27.988281 15.808594 28.714844 15.359375 29.300781 C 14.90625 29.890625 14.25 30.265625 13.515625 30.363281 C 13.390625 30.378906 13.269531 30.386719 13.144531 30.386719 Z M 13.15625 25.132812 C 12.40625 25.132812 11.664062 25.464844 11.175781 26.101562 C 10.769531 26.625 10.59375 27.277344 10.679688 27.933594 C 10.765625 28.589844 11.105469 29.175781 11.632812 29.582031 C 12.085938 29.925781 12.621094 30.09375 13.148438 30.09375 C 13.898438 30.09375 14.640625 29.761719 15.128906 29.125 C 15.535156 28.597656 15.710938 27.949219 15.625 27.292969 C 15.539062 26.636719 15.199219 26.050781 14.671875 25.644531 C 14.21875 25.300781 13.683594 25.132812 13.15625 25.132812 Z M 13.15625 25.132812 " fill-opacity="1" fill-rule="nonzero"/><path fill="#153a4f" d="M 13.511719 28.886719 L 12.792969 28.886719 C 12.492188 28.886719 12.246094 28.644531 12.246094 28.34375 L 12.246094 28.113281 C 12.246094 28.035156 12.3125 27.96875 12.390625 27.96875 C 12.472656 27.96875 12.535156 28.035156 12.535156 28.113281 L 12.535156 28.34375 C 12.535156 28.484375 12.652344 28.597656 12.792969 28.597656 L 13.511719 28.597656 C 13.652344 28.597656 13.765625 28.484375 13.765625 28.34375 L 13.765625 28.011719 C 13.765625 27.871094 13.652344 27.757812 13.511719 27.757812 L 12.792969 27.757812 C 12.492188 27.757812 12.246094 27.511719 12.246094 27.210938 L 12.246094 26.882812 C 12.246094 26.582031 12.492188 26.335938 12.792969 26.335938 L 13.511719 26.335938 C 13.8125 26.335938 14.054688 26.582031 14.054688 26.882812 L 14.054688 27.105469 C 14.054688 27.183594 13.992188 27.25 13.910156 27.25 C 13.832031 27.25 13.765625 27.183594 13.765625 27.105469 L 13.765625 26.882812 C 13.765625 26.742188 13.652344 26.628906 13.511719 26.628906 L 12.792969 26.628906 C 12.652344 26.628906 12.535156 26.742188 12.535156 26.882812 L 12.535156 27.210938 C 12.535156 27.351562 12.652344 27.46875 12.792969 27.46875 L 13.511719 27.46875 C 13.8125 27.46875 14.054688 27.710938 14.054688 28.011719 L 14.054688 28.34375 C 14.054688 28.644531 13.8125 28.886719 13.511719 28.886719 Z M 13.511719 28.886719 " fill-opacity="1" fill-rule="nonzero"/><path fill="#153a4f" d="M 13.152344 29.421875 C 13.074219 29.421875 13.007812 29.355469 13.007812 29.277344 L 13.007812 28.742188 C 13.007812 28.664062 13.074219 28.597656 13.152344 28.597656 C 13.230469 28.597656 13.296875 28.664062 13.296875 28.742188 L 13.296875 29.277344 C 13.296875 29.355469 13.230469 29.421875 13.152344 29.421875 Z M 13.152344 29.421875 " fill-opacity="1" fill-rule="nonzero"/><path fill="#153a4f" d="M 13.152344 26.628906 C 13.074219 26.628906 13.007812 26.5625 13.007812 26.484375 L 13.007812 25.949219 C 13.007812 25.871094 13.074219 25.804688 13.152344 25.804688 C 13.230469 25.804688 13.296875 25.871094 13.296875 25.949219 L 13.296875 26.484375 C 13.296875 26.5625 13.230469 26.628906 13.152344 26.628906 Z M 13.152344 26.628906 " fill-opacity="1" fill-rule="nonzero"/><g clip-path="url(#35ce6ce9ad)"><path fill="#ffffff" d="M 29.375 14.699219 L 31.640625 16.976562 C 32.199219 17.535156 32.199219 18.445312 31.640625 19.007812 C 31.082031 19.570312 30.179688 19.570312 29.621094 19.007812 L 27.355469 16.730469 Z M 29.375 14.699219 " fill-opacity="1" fill-rule="nonzero"/><path fill="#153a4f" d="M 30.628906 19.574219 C 30.226562 19.574219 29.824219 19.417969 29.519531 19.109375 L 27.253906 16.832031 C 27.199219 16.777344 27.199219 16.683594 27.253906 16.628906 C 27.3125 16.570312 27.402344 16.570312 27.457031 16.628906 L 29.722656 18.90625 C 29.972656 19.15625 30.300781 19.28125 30.628906 19.28125 C 30.960938 19.28125 31.289062 19.15625 31.539062 18.90625 C 31.78125 18.660156 31.914062 18.335938 31.914062 17.992188 C 31.914062 17.648438 31.78125 17.324219 31.539062 17.078125 L 29.273438 14.800781 C 29.21875 14.746094 29.21875 14.652344 29.273438 14.59375 C 29.332031 14.539062 29.421875 14.539062 29.476562 14.59375 L 31.742188 16.875 C 32.039062 17.171875 32.203125 17.570312 32.203125 17.992188 C 32.203125 18.414062 32.039062 18.8125 31.742188 19.109375 C 31.4375 19.417969 31.035156 19.574219 30.628906 19.574219 Z M 30.628906 19.574219 " fill-opacity="1" fill-rule="nonzero"/></g><path fill="#4ee584" d="M 29 13.660156 L 29.75 14.441406 C 29.886719 14.578125 29.886719 14.804688 29.75 14.945312 L 27.601562 17.105469 C 27.464844 17.242188 27.238281 17.242188 27.101562 17.105469 L 26.335938 16.316406 Z M 29 13.660156 " fill-opacity="1" fill-rule="nonzero"/><path fill="#153a4f" d="M 27.351562 17.355469 C 27.21875 17.355469 27.09375 17.300781 26.996094 17.207031 L 26.234375 16.417969 C 26.175781 16.363281 26.179688 16.269531 26.234375 16.214844 C 26.292969 16.15625 26.382812 16.160156 26.4375 16.214844 L 27.203125 17 C 27.242188 17.039062 27.296875 17.0625 27.351562 17.0625 C 27.40625 17.0625 27.460938 17.039062 27.5 17 L 29.644531 14.84375 C 29.6875 14.800781 29.707031 14.75 29.707031 14.691406 C 29.707031 14.636719 29.6875 14.582031 29.644531 14.542969 C 29.644531 14.542969 29.644531 14.542969 29.644531 14.539062 L 28.898438 13.761719 C 28.84375 13.703125 28.84375 13.609375 28.902344 13.554688 C 28.957031 13.5 29.050781 13.5 29.105469 13.558594 L 29.851562 14.335938 C 29.945312 14.433594 29.996094 14.558594 29.996094 14.691406 C 29.996094 14.828125 29.945312 14.953125 29.851562 15.046875 L 27.703125 17.207031 C 27.609375 17.300781 27.484375 17.355469 27.351562 17.355469 Z M 27.351562 17.355469 " fill-opacity="1" fill-rule="nonzero"/><path fill="#ffffff" d="M 27.941406 8.09375 C 28.171875 8.328125 28.382812 8.582031 28.5625 8.855469 C 28.746094 9.132812 28.902344 9.421875 29.027344 9.730469 C 29.152344 10.035156 29.25 10.351562 29.3125 10.675781 C 29.378906 11.003906 29.410156 11.332031 29.410156 11.660156 C 29.410156 11.992188 29.378906 12.320312 29.3125 12.648438 C 29.25 12.972656 29.152344 13.289062 29.027344 13.59375 C 28.902344 13.898438 28.746094 14.191406 28.5625 14.46875 C 28.382812 14.742188 28.171875 14.996094 27.941406 15.230469 C 27.707031 15.464844 27.453125 15.675781 27.179688 15.859375 C 26.90625 16.042969 26.617188 16.199219 26.3125 16.328125 C 26.007812 16.453125 25.691406 16.550781 25.371094 16.613281 C 25.046875 16.679688 24.71875 16.710938 24.390625 16.710938 C 24.0625 16.710938 23.734375 16.679688 23.410156 16.613281 C 23.089844 16.550781 22.773438 16.453125 22.46875 16.328125 C 22.164062 16.199219 21.875 16.042969 21.601562 15.859375 C 21.328125 15.675781 21.074219 15.464844 20.839844 15.230469 C 20.609375 14.996094 20.398438 14.742188 20.21875 14.46875 C 20.035156 14.191406 19.878906 13.902344 19.753906 13.59375 C 19.628906 13.289062 19.53125 12.972656 19.46875 12.648438 C 19.402344 12.320312 19.371094 11.992188 19.371094 11.664062 C 19.371094 11.332031 19.402344 11.003906 19.46875 10.675781 C 19.53125 10.351562 19.628906 10.035156 19.753906 9.730469 C 19.878906 9.425781 20.035156 9.132812 20.21875 8.855469 C 20.398438 8.582031 20.609375 8.328125 20.839844 8.09375 C 21.074219 7.859375 21.328125 7.648438 21.601562 7.464844 C 21.875 7.28125 22.164062 7.125 22.46875 6.996094 C 22.773438 6.871094 23.089844 6.773438 23.410156 6.710938 C 23.734375 6.644531 24.0625 6.613281 24.390625 6.613281 C 24.71875 6.613281 25.046875 6.644531 25.371094 6.710938 C 25.691406 6.773438 26.007812 6.871094 26.3125 6.996094 C 26.617188 7.125 26.90625 7.28125 27.179688 7.464844 C 27.453125 7.648438 27.707031 7.859375 27.941406 8.09375 Z M 27.941406 8.09375 " fill-opacity="1" fill-rule="nonzero"/><path fill="#153a4f" d="M 24.390625 16.855469 C 23.695312 16.855469 23.015625 16.71875 22.378906 16.449219 C 21.765625 16.1875 21.214844 15.8125 20.738281 15.335938 C 20.265625 14.859375 19.894531 14.300781 19.632812 13.683594 C 19.363281 13.042969 19.226562 12.363281 19.226562 11.660156 C 19.226562 10.960938 19.363281 10.28125 19.632812 9.640625 C 19.894531 9.023438 20.265625 8.464844 20.738281 7.988281 C 21.214844 7.511719 21.765625 7.136719 22.378906 6.875 C 23.015625 6.605469 23.695312 6.46875 24.390625 6.46875 C 25.089844 6.46875 25.765625 6.605469 26.402344 6.875 C 27.015625 7.136719 27.566406 7.511719 28.042969 7.988281 C 28.515625 8.464844 28.890625 9.023438 29.148438 9.640625 C 29.417969 10.28125 29.554688 10.960938 29.554688 11.660156 L 29.410156 11.660156 L 29.554688 11.660156 C 29.554688 12.363281 29.417969 13.042969 29.148438 13.683594 C 28.890625 14.300781 28.515625 14.859375 28.042969 15.335938 C 27.566406 15.8125 27.015625 16.1875 26.402344 16.449219 C 25.765625 16.71875 25.089844 16.855469 24.390625 16.855469 Z M 24.390625 6.757812 C 23.089844 6.757812 21.863281 7.269531 20.945312 8.195312 C 20.023438 9.121094 19.515625 10.351562 19.515625 11.660156 C 19.515625 14.367188 21.703125 16.566406 24.390625 16.566406 C 25.691406 16.566406 26.917969 16.054688 27.839844 15.128906 C 28.757812 14.203125 29.265625 12.972656 29.265625 11.660156 C 29.265625 10.351562 28.757812 9.121094 27.835938 8.195312 C 26.917969 7.269531 25.691406 6.757812 24.390625 6.757812 Z M 24.390625 6.757812 " fill-opacity="1" fill-rule="nonzero"/><path fill="#ffaf83" d="M 25.933594 9.257812 L 25.933594 14.070312 L 27.679688 14.070312 L 27.679688 9.257812 C 27.679688 9.132812 27.582031 9.03125 27.457031 9.03125 L 26.15625 9.03125 C 26.035156 9.03125 25.933594 9.132812 25.933594 9.257812 Z M 25.933594 9.257812 " fill-opacity="1" fill-rule="nonzero"/><path fill="#153a4f" d="M 27.679688 14.214844 L 25.933594 14.214844 C 25.855469 14.214844 25.789062 14.148438 25.789062 14.070312 L 25.789062 9.257812 C 25.789062 9.050781 25.953125 8.886719 26.15625 8.886719 L 27.457031 8.886719 C 27.660156 8.886719 27.824219 9.050781 27.824219 9.257812 L 27.824219 14.070312 C 27.824219 14.148438 27.761719 14.214844 27.679688 14.214844 Z M 26.078125 13.921875 L 27.535156 13.921875 L 27.535156 9.257812 C 27.535156 9.210938 27.5 9.175781 27.457031 9.175781 L 26.15625 9.175781 C 26.113281 9.175781 26.078125 9.210938 26.078125 9.257812 Z M 26.078125 13.921875 " fill-opacity="1" fill-rule="nonzero"/><path fill="#ffaf83" d="M 23.449219 14.070312 L 25.195312 14.070312 L 25.195312 10.347656 C 25.195312 10.222656 25.09375 10.125 24.972656 10.125 L 23.671875 10.125 C 23.546875 10.125 23.449219 10.222656 23.449219 10.347656 Z M 23.449219 14.070312 " fill-opacity="1" fill-rule="nonzero"/><path fill="#153a4f" d="M 25.195312 14.214844 L 23.449219 14.214844 C 23.367188 14.214844 23.304688 14.148438 23.304688 14.070312 L 23.304688 10.347656 C 23.304688 10.144531 23.46875 9.976562 23.671875 9.976562 L 24.972656 9.976562 C 25.175781 9.976562 25.339844 10.144531 25.339844 10.347656 L 25.339844 14.070312 C 25.339844 14.148438 25.273438 14.214844 25.195312 14.214844 Z M 23.59375 13.921875 L 25.050781 13.921875 L 25.050781 10.347656 C 25.050781 10.304688 25.015625 10.269531 24.972656 10.269531 L 23.671875 10.269531 C 23.628906 10.269531 23.59375 10.304688 23.59375 10.347656 Z M 23.59375 13.921875 " fill-opacity="1" fill-rule="nonzero"/><path fill="#ffaf83" d="M 20.960938 14.070312 L 22.707031 14.070312 L 22.707031 11.65625 C 22.707031 11.53125 22.609375 11.429688 22.484375 11.429688 L 21.183594 11.429688 C 21.0625 11.429688 20.960938 11.53125 20.960938 11.65625 Z M 20.960938 14.070312 " fill-opacity="1" fill-rule="nonzero"/><path fill="#153a4f" d="M 22.707031 14.214844 L 20.960938 14.214844 C 20.882812 14.214844 20.816406 14.148438 20.816406 14.070312 L 20.816406 11.65625 C 20.816406 11.449219 20.980469 11.285156 21.183594 11.285156 L 22.484375 11.285156 C 22.6875 11.285156 22.851562 11.449219 22.851562 11.65625 L 22.851562 14.070312 C 22.851562 14.148438 22.789062 14.214844 22.707031 14.214844 Z M 21.105469 13.921875 L 22.5625 13.921875 L 22.5625 11.65625 C 22.5625 11.609375 22.527344 11.574219 22.484375 11.574219 L 21.183594 11.574219 C 21.140625 11.574219 21.105469 11.609375 21.105469 11.65625 Z M 21.105469 13.921875 " fill-opacity="1" fill-rule="nonzero"/><path fill="#153a4f" d="M 27.949219 14.214844 L 20.832031 14.214844 C 20.753906 14.214844 20.6875 14.148438 20.6875 14.070312 C 20.6875 13.988281 20.753906 13.921875 20.832031 13.921875 L 27.949219 13.921875 C 28.03125 13.921875 28.09375 13.988281 28.09375 14.070312 C 28.09375 14.148438 28.03125 14.214844 27.949219 14.214844 Z M 27.949219 14.214844 " fill-opacity="1" fill-rule="nonzero"/></svg>